<svg width="108" height="32" viewBox="0 0 108 32" fill="none" xmlns="http://www.w3.org/2000/svg">
<path fill-rule="evenodd" clip-rule="evenodd" d="M23.9022 14.4546C23.7074 12.958 23.2273 11.4728 22.4368 10.0793V10.0804C19.504 4.90833 13.3061 2.74932 7.89972 4.72294L15.614 8.65872C16.869 9.27424 17.9782 10.2168 18.7999 11.4478L20.6755 16.0704C20.6755 16.0704 19.3186 17.0542 23.9022 14.4546ZM3.94063 14.5932V14.5973C3.88023 14.941 3.84168 15.2899 3.82606 15.6399L2.93139 23.8582C2.4221 23.2698 1.96282 22.622 1.56393 21.919C-1.31162 16.849 -0.0930824 10.5741 4.16348 6.91115L7.99409 8.86602L7.96282 8.88372C5.7507 10.1387 4.34679 12.2696 3.93957 14.5942L3.94063 14.5932ZM16.2845 22.9679L23.6717 18.778C22.927 21.9045 20.9357 24.7249 17.9196 26.436C14.1942 28.5492 9.81786 28.4513 6.30597 26.5621L6.77047 22.294C9.31169 24.4051 12.9923 24.8426 16.0365 23.1168C16.1199 23.0689 16.2022 23.02 16.2834 22.97L16.2845 22.9679Z" fill="#FCFCFC"/>
<path d="M39.8423 23.24C35.4023 23.24 32.6223 20.3 32.6223 15.62C32.6223 11 35.5623 7.96 39.9823 7.96C43.6823 7.96 46.3423 10.08 46.8023 13.4H43.3823C42.9423 11.92 41.6823 11.08 39.9023 11.08C37.5023 11.08 36.0423 12.78 36.0423 15.6C36.0423 18.38 37.5223 20.12 39.9023 20.12C41.7223 20.12 43.0623 19.22 43.4623 17.76H46.8223C46.3023 21.06 43.5423 23.24 39.8423 23.24ZM48.0692 17.98C48.0692 14.82 50.3892 12.7 53.5892 12.7C56.7692 12.7 59.0892 14.82 59.0892 17.98C59.0892 21.14 56.7692 23.24 53.5892 23.24C50.3892 23.24 48.0692 21.14 48.0692 17.98ZM51.1692 17.96C51.1692 19.48 52.1492 20.48 53.5892 20.48C55.0092 20.48 55.9892 19.48 55.9892 17.96C55.9892 16.46 55.0092 15.46 53.5892 15.46C52.1492 15.46 51.1692 16.46 51.1692 17.96ZM63.9548 23H60.8748V13H63.7548L63.9548 14.04C64.4548 13.34 65.4348 12.68 66.8748 12.68C68.3748 12.68 69.3348 13.38 69.9148 14.44C70.4348 13.38 71.6148 12.68 73.0548 12.68C75.6348 12.68 76.9148 14.18 76.9148 16.46V23H73.8348V17.32C73.8348 16.06 73.1748 15.46 72.1948 15.46C71.3148 15.46 70.4348 15.94 70.4348 17.64V23H67.3548V17.32C67.3548 16.08 66.7148 15.48 65.7348 15.48C64.8548 15.48 63.9548 15.96 63.9548 17.64V23ZM78.177 13H79.557V12.2C79.557 9.22 81.117 7.92 83.657 7.92C84.077 7.92 84.557 7.96 85.037 8.04V10.68H84.177C82.917 10.68 82.637 11.34 82.637 12.2V13H85.037V15.56H82.637V23H79.557V15.56H78.177V13ZM90.7688 23.26C87.7488 23.26 85.5888 21.06 85.5888 17.98C85.5888 14.86 87.6888 12.68 90.7088 12.68C93.8488 12.68 95.8088 14.74 95.8088 18V18.78L88.5488 18.82C88.7288 20.14 89.4688 20.76 90.8288 20.76C91.9888 20.76 92.8088 20.34 93.0288 19.62H95.8488C95.4888 21.84 93.5088 23.26 90.7688 23.26ZM90.7288 15.18C89.5088 15.18 88.8288 15.72 88.5888 16.92H92.7488C92.7488 15.86 91.9688 15.18 90.7288 15.18ZM100.555 23.26C98.435 23.26 97.115 22.02 97.115 20.06C97.115 18.22 98.415 17.08 100.815 16.9L103.615 16.68V16.52C103.615 15.54 103.015 15.02 101.915 15.02C100.615 15.02 99.915 15.52 99.915 16.42H97.355C97.355 14.16 99.215 12.68 102.075 12.68C104.975 12.68 106.615 14.3 106.615 17.16V23H103.895L103.695 21.68C103.375 22.6 102.055 23.26 100.555 23.26ZM101.635 20.98C102.815 20.98 103.635 20.4 103.635 19.26V18.72L102.075 18.86C100.735 18.98 100.255 19.28 100.255 19.92C100.255 20.64 100.695 20.98 101.635 20.98Z" fill="#FCFCFC"/>
</svg>
