<svg width="195" height="56" viewBox="0 0 195 56" fill="none" xmlns="http://www.w3.org/2000/svg">
<g clip-path="url(#clip0_1_5543)">
<rect width="196.622" height="56" fill="white"/>
<g clip-path="url(#clip1_1_5543)">
<path d="M52.7878 28.6044C49.4189 28.6044 47.7435 32.0034 47.7435 36.5914C47.7435 41.3666 49.353 44.7041 52.7878 44.7041C56.2255 44.7041 57.8302 41.3666 57.8302 36.5914C57.8302 32.0034 56.1567 28.6044 52.7878 28.6044ZM52.7878 41.5813C51.8923 41.5813 51.4943 40.4788 51.4943 36.5901C51.4943 33.0391 51.7597 31.7245 52.7878 31.7245C53.814 31.7245 54.0804 33.0391 54.0804 36.5901C54.0804 40.4827 53.6794 41.5813 52.7878 41.5813ZM60.1596 27.2937V29.0103H58.6856V32.5023H60.1596V44.3715H63.7748V32.5023H65.7423V29.0103H63.7748V27.4522C63.7748 26.5186 64.1185 26.008 65.0702 26.008C65.2707 26.008 65.538 26.0682 65.7413 26.1323V22.3379C65.1581 22.2462 64.6216 22.1519 63.9103 22.1519C61.5228 22.1532 60.1596 23.5294 60.1596 27.2937ZM21.6178 33.3259C21.6178 29.9294 19.3658 28.6476 17.1978 28.6476C15.1472 28.6476 13.1367 29.8679 12.7367 32.8977L15.8813 33.7868C15.9205 32.8886 16.1983 31.7691 17.066 31.7691C17.6904 31.7691 18.0016 32.3779 18.0016 33.2944V34.6156C15.6131 34.9953 12.3215 36.1763 12.2422 40.1751C12.1868 42.9993 13.5606 44.67 15.3629 44.67C16.4293 44.67 17.4966 43.8622 18.1133 42.9705C18.1352 43.2258 18.1591 43.9512 18.2269 44.3754H21.9538C21.8173 44.1659 21.6168 43.6409 21.6168 41.8968L21.6178 33.3259ZM18.0025 40.4592C17.6951 41.0143 17.2541 41.4137 16.8426 41.4137C16.1944 41.4137 15.7935 40.8559 15.7935 39.7849C15.7935 37.8248 16.7386 37.1662 18.0016 36.9999L18.0025 40.4592ZM30.4835 28.645C29.0735 28.645 28.0778 29.5406 27.3332 30.5815H27.2864L27.2683 29.0103H23.7304V44.3728H27.3456V33.3861C27.6759 32.8061 28.1151 32.4316 28.5217 32.4316C29.126 32.4316 29.3551 32.9174 29.3551 33.7933V44.3702H32.9704V32.2195C32.9713 30.1127 32.0663 28.645 30.4835 28.645ZM45.1316 29.009H41.5364L38.8768 33.6519H38.8328V22.5827H35.2157V44.3715H38.8328V38.8696L39.5927 37.6703H39.6366L41.3989 44.3715H45.1488L42.1073 33.7383L45.1316 29.009ZM8.38928 33.0391V32.8689C9.54058 32.2522 10.9821 30.753 10.9821 27.9052C10.9821 24.8963 9.13199 22.5814 6.3177 22.5814H0.0371094V44.3728H6.15732C9.174 44.3728 11.3592 42.2726 11.3592 38.5436C11.3592 35.7508 10.1105 33.8169 8.38928 33.0391ZM3.93969 26.4387H5.34588C6.25852 26.4387 7.28094 26.7752 7.28094 28.8545C7.28094 30.1429 6.7072 31.2126 5.25519 31.2126H3.93969V26.4387ZM5.4127 40.3348H3.93969V34.8853H5.4127C6.7072 34.8853 7.43845 35.9577 7.43845 37.5799C7.43845 39.8124 6.28143 40.3348 5.4127 40.3348ZM142.627 41.8968V33.3259C142.627 29.9294 140.377 28.6476 138.21 28.6476C136.158 28.6476 134.147 29.8679 133.746 32.8977L136.894 33.7868C136.931 32.8886 137.207 31.7691 138.077 31.7691C138.698 31.7691 139.014 32.3779 139.014 33.2944V34.6156C136.623 34.9953 133.328 36.1763 133.251 40.1751C133.195 42.9993 134.568 44.67 136.373 44.67C137.44 44.67 138.504 43.8622 139.126 42.9705C139.145 43.2258 139.17 43.9512 139.235 44.3754H142.96C142.83 44.1633 142.627 43.6409 142.627 41.8968ZM139.016 40.4592C138.704 41.0143 138.265 41.4137 137.854 41.4137C137.205 41.4137 136.804 40.8559 136.804 39.7849C136.804 37.8248 137.749 37.1662 139.014 36.9999L139.016 40.4592ZM103.213 28.6044C99.887 28.6044 98.2336 32.2771 98.2336 36.6241C98.2336 40.8782 99.7963 44.7054 103.255 44.7054C104.23 44.746 105.19 44.3619 105.996 43.6083C106.803 42.8546 107.414 41.7701 107.744 40.5102L105.307 39.2847C105.127 40.522 104.391 41.394 103.518 41.394C102.064 41.394 101.799 39.1236 101.848 37.7554H107.898V36.7145C107.898 32.7066 106.695 28.6044 103.213 28.6044ZM104.55 34.8146H101.849C101.793 33.3691 102.162 31.7259 103.189 31.7259C104.438 31.7259 104.586 33.3913 104.55 34.8146ZM117.648 29.0103H121.261V44.3728H117.648V29.0103ZM117.648 22.5814H121.261V26.9886H117.648V22.5814ZM128.057 31.7259C128.639 31.7259 128.927 32.1553 129.105 32.7642C129.263 33.3468 129.284 34.0814 129.284 34.6954H132.367C132.367 33.1648 131.785 28.607 127.95 28.607C124.535 28.607 122.84 32.8008 122.84 36.992C122.84 40.7852 124.533 44.7067 127.793 44.7067C130.427 44.7067 131.989 42.7492 132.258 39.015L129.446 38.4624C129.446 39.6264 129.334 41.3954 128.06 41.3954C127.126 41.3954 126.724 40.268 126.724 36.8061C126.717 33.7462 126.854 31.7259 128.057 31.7259ZM72.0258 22.5827L68.2998 44.3728H71.7804L72.4735 39.9682H76.1555L76.7808 44.3728H80.6863L77.2916 22.5827H72.0258ZM73.032 36.1108L74.3742 27.2335H74.4544L75.5971 36.1108H73.032ZM112.982 31.0895H112.922L112.885 29.009H109.387V44.3715H113.006V34.4231C113.43 33.7305 114.065 33.2342 114.989 33.2342C115.611 33.2342 116.051 33.4411 116.462 33.6584V28.6437C115.068 28.645 113.719 29.4672 112.982 31.0895ZM94.141 28.645C92.6269 28.645 91.5472 29.7631 90.9153 30.6993H90.8685C90.5267 29.5144 89.7936 28.645 88.6948 28.645C87.3478 28.645 86.2146 29.5995 85.4585 30.5763H85.4127L85.3936 29.0116H81.8653V44.3741H85.4127V33.4175C85.7172 32.8519 86.2604 32.4709 86.6394 32.4709C87.3105 32.4709 87.4881 33.0208 87.4881 33.8483V44.3741H91.0375V33.4175C91.2723 32.9933 91.7888 32.4709 92.2737 32.4709C92.9315 32.4709 93.1148 33.0208 93.1148 33.8483V44.3741H96.6613V32.1265C96.6613 30.0054 95.6436 28.645 94.141 28.645ZM164.852 19.1313C166.286 19.9085 167.704 20.7416 169.103 21.6295C164.657 24.1043 160.356 27.0414 156.236 30.4152C154.846 29.4159 153.435 28.4724 152.005 27.5857C156.116 24.3014 160.412 21.4742 164.852 19.1313ZM159.547 16.561C154.936 18.5648 150.48 21.187 146.244 24.3896C147.591 25.0574 148.925 25.7683 150.24 26.5291C154.343 23.2178 158.665 20.4438 163.148 18.2435C161.958 17.6442 160.757 17.0832 159.547 16.561Z" fill="#70707B"/>
<path d="M174.514 18.8838C170.871 16.4661 167.096 14.4388 163.225 12.8202C161.859 13.3596 160.506 13.9475 159.165 14.5878C163.152 16.2072 167.038 18.2584 170.787 20.7221C172.02 20.0722 173.262 19.4593 174.514 18.8838ZM180.445 16.4589C176.715 14.2286 172.873 12.3671 168.949 10.8889C167.698 11.2439 166.453 11.6395 165.216 12.0752C169.108 13.6357 172.907 15.6087 176.576 17.9764C177.858 17.4322 179.148 16.9263 180.445 16.4589ZM189.968 20.8465C180.709 25.1293 171.955 31.2443 163.984 38.9979C165.96 40.6644 167.89 42.4306 169.771 44.2929C177.281 36.1191 185.57 29.391 194.409 24.2953C192.953 23.0868 191.472 21.9367 189.968 20.8465ZM183.551 16.6644C173.931 20.1595 164.795 25.7932 156.504 33.3415C158.355 34.5899 160.174 35.9258 161.958 37.3468C170.081 29.6296 179.037 23.7111 188.5 19.8082C186.875 18.6892 185.224 17.6408 183.551 16.6644ZM172.815 42.922C172.815 42.156 173.285 41.5328 173.862 41.5328C174.44 41.5328 174.909 42.156 174.909 42.922C174.909 43.7024 174.44 44.3256 173.862 44.3256C173.285 44.3256 172.815 43.7024 172.815 42.922ZM173.013 42.922C173.013 43.5597 173.391 44.0507 173.862 44.0507C174.329 44.0507 174.708 43.5597 174.708 42.922C174.708 42.3053 174.33 41.8091 173.862 41.8091C173.392 41.8091 173.013 42.3053 173.013 42.922Z" fill="#70707B"/>
<path d="M174.382 43.7063H174.187L173.851 42.9875H173.644V43.7063H173.472V42.1469H173.981C174.081 42.1378 174.18 42.1644 174.27 42.2241C174.31 42.2608 174.344 42.311 174.366 42.3701C174.389 42.4292 174.4 42.4953 174.399 42.5619C174.399 42.8657 174.236 42.9809 174.029 42.9888L174.382 43.7063ZM173.838 42.7963C174.001 42.7963 174.225 42.8343 174.225 42.5554C174.225 42.3524 174.095 42.3249 173.948 42.3249H173.646V42.7937L173.838 42.7963Z" fill="#70707B"/>
</g>
</g>
<defs>
<clipPath id="clip0_1_5543">
<rect width="194.133" height="56" fill="white"/>
</clipPath>
<clipPath id="clip1_1_5543">
<rect width="194.444" height="33.8164" fill="white" transform="translate(0 10.8889)"/>
</clipPath>
</defs>
</svg>

