<svg width="195" height="52" viewBox="0 0 195 52" fill="none" xmlns="http://www.w3.org/2000/svg">
<g clip-path="url(#clip0_1_5568)">
<path fill-rule="evenodd" clip-rule="evenodd" d="M20.9692 36.267L20.8446 36.3907C19.2318 38.0034 17.3707 38.8721 15.386 38.8721C11.2918 38.8721 8.3136 35.894 8.3136 31.6761C8.3136 27.3325 11.2918 24.3544 15.386 24.3544C17.3707 24.3544 19.2318 25.2231 20.8446 26.8358L20.9692 26.9605L23.5744 23.8587V23.734C21.3413 21.1289 18.7351 19.8871 15.5086 19.8871C12.2821 19.8871 9.30496 21.0042 7.19552 22.9889C4.83772 25.0984 3.72168 28.0765 3.72168 31.6761C3.72168 35.1489 4.83874 38.1271 7.19552 40.2375C9.30496 42.2213 12.2831 43.3394 15.5086 43.3394C18.7341 43.3394 21.3413 42.0976 23.5744 39.4925V39.3688L20.9692 36.267ZM26.4289 42.8416H31.0198V20.2591H26.4289V42.8416ZM48.391 38.0034C47.2739 38.7485 46.0332 39.1194 45.0408 39.1194C43.5518 39.1194 42.8067 38.3744 42.8067 36.5143V24.6017H47.5213V20.2591H42.8067V13.1868L38.3395 15.6682V20.2591H34.3689V24.6017H38.3395V37.382C38.3395 40.8548 40.3252 43.2126 43.4271 43.2126C45.5365 43.3383 46.7772 42.718 47.5213 42.2202H47.646V42.0966L48.762 37.753L48.391 38.0034ZM51.7412 42.8416H56.4557V20.2591H51.7412V42.8416Z" fill="#70707B"/>
<path fill-rule="evenodd" clip-rule="evenodd" d="M172.346 0.778442H171.228L170.981 2.63954C152.493 3.13521 148.771 17.5283 148.771 17.5283C148.771 17.5283 152.122 15.4199 157.085 15.4199C162.173 15.4199 164.157 17.4046 164.157 17.4046C164.157 17.4046 167.382 14.7985 171.85 14.7985C176.317 14.7985 179.542 17.4046 179.542 17.4046C179.542 17.4046 181.526 15.4199 186.491 15.4199C191.578 15.4199 194.929 17.5283 194.929 17.5283C194.929 17.5283 191.082 3.13521 172.594 2.63954L172.346 0.778442Z" fill="#70707B"/>
<path fill-rule="evenodd" clip-rule="evenodd" d="M168.995 43.4631C171.849 43.4631 173.338 41.7267 173.338 38.4991V16.7864C172.718 16.538 171.726 16.538 171.104 16.7864V38.4991C171.104 40.6086 170.236 41.3536 168.995 41.3536C167.632 41.3536 166.761 40.6086 166.761 38.4991C166.761 37.8808 166.266 37.3831 165.768 37.3831C165.148 37.3831 164.652 37.8798 164.652 38.4991C164.653 41.7256 166.142 43.4631 168.995 43.4631Z" fill="#70707B"/>
<path fill-rule="evenodd" clip-rule="evenodd" d="M74.9445 36.3907C73.7037 37.8798 71.7179 39.3688 69.6085 39.3688C66.1347 39.3688 64.2725 36.8853 64.2725 31.0547C64.2725 26.3391 66.01 23.8577 69.3601 23.8577C71.7179 23.8577 73.8274 25.4704 74.9445 26.8358V36.3907ZM79.4107 40.8559V20.2592H74.8198V22.3686C73.579 21.0032 71.3459 19.7625 68.9871 19.7625C64.1489 19.7625 59.6816 23.4857 59.6816 31.1774C59.6816 39.8625 63.6522 43.462 68.7398 43.462C71.2212 43.462 73.0823 42.3439 74.8198 40.8548V41.2279C74.8198 45.8188 73.3307 47.5552 66.754 47.9293L68.3678 51.1547C76.8055 50.9064 79.4107 47.6809 79.4107 40.8559ZM96.0379 24.9747C95.0455 24.478 93.9284 24.106 92.4393 24.106C89.4612 24.106 87.8484 26.0918 87.8484 29.9377V42.8427H83.2575V20.2592H87.8484V22.3686C88.8408 20.8795 90.8266 19.7625 93.1834 19.7625C95.0445 19.7625 96.2862 20.1345 97.2776 20.7548L96.0379 24.9747ZM113.036 31.6751C113.036 35.7693 110.678 39.2421 107.205 39.2421C103.731 39.2421 101.249 36.5133 101.249 31.5514C101.249 26.9595 103.483 23.9813 106.956 23.9813C110.678 23.9824 113.036 26.9595 113.036 31.6751ZM117.627 31.5514C117.627 24.3544 113.16 19.7625 107.205 19.7625C101.249 19.7625 96.6582 24.105 96.6582 31.6751C96.6582 38.7474 101.125 43.462 107.082 43.462C113.16 43.463 117.627 38.9948 117.627 31.5514ZM134.129 42.8417V40.8559C132.89 42.4686 130.532 43.463 128.175 43.463C122.592 43.463 119.737 39.9882 119.737 33.2889V20.2592H124.328V33.1621C124.328 37.753 126.188 39.3678 129.167 39.3678C132.268 39.3678 134.128 37.2584 134.128 33.5352V20.2592H138.719V42.8417H134.129ZM157.705 32.0471C157.705 36.8853 155.843 39.3688 152.493 39.3688C150.135 39.3688 148.026 37.754 146.91 36.3907V26.7122C148.15 25.3478 150.135 23.8587 152.369 23.8587C155.72 23.8577 157.705 26.3391 157.705 32.0471ZM162.296 31.9234C162.296 23.362 158.326 19.7635 153.238 19.7635C150.633 19.7635 148.647 20.8805 146.911 22.3696V20.2602H142.444V51.2804L146.911 48.9227V40.8559C148.276 42.2213 150.509 43.463 152.991 43.463C157.829 43.463 162.296 39.7398 162.296 31.9234Z" fill="#70707B"/>
</g>
<defs>
<clipPath id="clip0_1_5568">
<rect width="197" height="50.5108" fill="white" transform="translate(0.826172 0.794189)"/>
</clipPath>
</defs>
</svg>
