<svg width="195" height="56" viewBox="0 0 195 56" fill="none" xmlns="http://www.w3.org/2000/svg">
<g clip-path="url(#clip0_1_5561)">
<rect x="1.14258" width="196.622" height="56" fill="white"/>
<g clip-path="url(#clip1_1_5561)">
<path d="M2.29791 41.3957C1.64721 40.8828 1.36488 39.6166 1.65961 38.5908C1.72098 38.3664 2.69058 36.988 3.80773 35.5454L5.83311 32.9008H4.22509C2.40838 32.9008 2.05253 32.7565 1.73326 31.8749C1.365 30.8493 1.56153 29.5829 2.21198 28.9259C2.53113 28.5892 2.67843 28.5733 4.92476 28.5733C7.28157 28.5733 7.28157 28.5733 7.66209 28.99C7.87077 29.2144 8.17764 29.7754 8.36177 30.2242C8.77912 31.3462 9.56472 32.372 10.3135 32.8208C11.0009 33.2215 11.3937 33.7184 11.59 34.3915C11.6638 34.6478 11.7251 35.9621 11.7251 37.3566C11.7251 39.4403 11.6883 39.9692 11.5042 40.434C11.0745 41.572 10.0556 42.0208 9.086 41.4919C8.42314 41.1232 8.28812 40.5943 8.28812 38.2382V36.1865L6.29956 38.7831C5.19481 40.1936 4.17599 41.4438 4.02869 41.54C3.59906 41.8285 2.75208 41.7483 2.29791 41.3957ZM13.235 41.4759C13.014 41.3476 12.7194 41.011 12.5844 40.7225C12.3634 40.2417 12.3389 39.9211 12.3389 37.3085C12.3389 33.8785 12.4003 33.6701 13.5418 32.9168C14.4502 32.3239 15.2112 31.3301 15.6654 30.1439C16.2423 28.6374 16.4019 28.5731 19.0656 28.5731C21.5451 28.5731 21.8029 28.6533 22.208 29.5669C22.478 30.1439 22.4904 31.2659 22.2325 31.907C21.8767 32.8047 21.6556 32.9008 19.8389 32.9008H18.1818L20.2809 35.6736C22.5149 38.6389 22.6499 38.9113 22.4044 40.0974C22.2203 40.995 21.6802 41.5881 20.9682 41.6682C20.6491 41.7163 20.2563 41.6842 20.0967 41.6041C19.9494 41.5239 18.906 40.2898 17.8013 38.8472L15.7759 36.2186V38.0939C15.7759 40.2577 15.6286 40.8988 15.0148 41.3957C14.5484 41.7644 13.7996 41.7964 13.235 41.4759ZM53.9267 40.418C52.515 40.1455 51.6681 39.1357 51.3857 37.3726C51.2998 36.8918 51.2507 34.3592 51.2507 31.1376V25.688H48.7957V22.0016H51.128V19.1966C51.128 17.6579 51.1648 16.3917 51.2016 16.3917C51.2384 16.3917 51.9995 16.1352 52.8956 15.8307C53.7916 15.5261 54.5895 15.2697 54.6754 15.2697C54.7736 15.2697 54.8106 16.2314 54.8106 18.6356V22.0016H58.2476V25.688H54.7859L54.8349 30.3843C54.884 35.4332 54.9332 35.8339 55.5714 36.2827C55.8538 36.475 57.0076 36.5071 57.7809 36.3468L58.2475 36.2346V40.0814L57.916 40.1777C56.4553 40.5783 55.1542 40.6584 53.9267 40.418ZM85.8049 40.418C83.043 39.8891 81.2754 37.8375 80.723 34.5036C80.453 32.9008 80.4162 30.5446 80.6371 28.8937C81.0545 25.8002 82.2697 23.5884 84.2214 22.3702C85.1052 21.8252 85.2648 21.7772 86.5782 21.713C87.4498 21.665 88.2476 21.713 88.6773 21.8413C90.7272 22.4183 92.2125 24.4859 92.679 27.4031C92.8632 28.5089 92.9245 30.9131 92.7894 31.5864L92.7157 31.9391H84.1232L84.1969 32.7084C84.4178 34.6799 84.9825 35.7538 86.1609 36.443C87.278 37.0841 89.8434 36.8437 91.476 35.9303L91.9915 35.6416L92.0529 36.0743C92.0897 36.3148 92.1756 37.1482 92.2616 37.9176C92.4457 39.5845 92.5193 39.4723 91.0586 39.9373C89.2787 40.5302 87.3147 40.7065 85.8049 40.418ZM89.2296 27.8999C89.0455 26.217 88.1494 25.2072 86.8605 25.2072C85.7926 25.2072 85.007 25.9124 84.5283 27.2909C84.0618 28.6372 83.9391 28.5731 86.7869 28.5731H89.3033L89.2296 27.8999ZM112.27 40.418C111.693 40.3379 111.226 40.2577 111.214 40.2257C111.202 40.2095 111.226 39.312 111.251 38.2221C111.3 36.475 111.325 36.2507 111.509 36.3468C112.061 36.6353 114.111 36.9399 114.725 36.8437C115.903 36.6515 116.652 35.7858 116.505 34.7762C116.382 33.9267 115.94 33.4778 114.504 32.7406C113.78 32.372 112.933 31.8751 112.65 31.6507C110.6 30.1118 110.33 26.1368 112.11 23.7166C112.638 22.9953 113.988 22.1138 114.983 21.8413C115.609 21.6489 119.316 21.681 119.414 21.8573C119.426 21.8894 119.426 22.7709 119.402 23.8288L119.353 25.7201L118.972 25.6239C116.885 25.0629 115.559 25.2072 115.019 26.0246C114.43 26.9543 114.713 27.9961 115.719 28.6212C116.075 28.8456 116.91 29.3265 117.573 29.6951C118.886 30.4324 119.635 31.2338 120.052 32.3398C120.249 32.8527 120.298 33.3175 120.298 34.5837C120.298 36.0583 120.273 36.2507 119.942 37.036C119.279 38.6068 118.076 39.7128 116.529 40.1936C115.523 40.5142 113.559 40.6103 112.27 40.418ZM145.768 40.3699C144.332 39.9532 143.51 39.0075 143.129 37.3407C142.479 34.4557 143.608 31.6026 145.928 30.2721C146.861 29.7273 148.481 29.2465 149.795 29.1183L150.924 29.0061V28.1083C150.924 26.9863 150.629 26.2011 150.065 25.7682C149.696 25.4957 149.426 25.4476 148.223 25.4476C146.713 25.4637 145.867 25.688 144.762 26.4093C144.43 26.6337 144.173 26.778 144.16 26.7619C144.087 26.3773 143.854 22.8511 143.915 22.7709C144.05 22.5946 145.682 22.0176 146.628 21.8252C147.168 21.713 148.309 21.681 149.39 21.713C151.059 21.7772 151.305 21.8252 152.09 22.242C153.465 22.9793 154.238 24.1974 154.484 26.0407C154.545 26.5055 154.619 29.9035 154.631 33.59L154.668 40.2737H151.292V37.6772L150.727 38.4948C150.065 39.4565 148.972 40.2096 147.917 40.4342C146.996 40.6264 146.628 40.6264 145.768 40.3699ZM149.034 36.6033C150.089 35.9783 150.924 34.2792 150.924 32.7246C150.924 32.0995 150.924 32.0835 150.531 32.1636C150.31 32.2117 149.807 32.2918 149.402 32.3399C147.769 32.5804 146.763 33.3176 146.493 34.5037C146.37 35.0166 146.382 35.209 146.579 35.7379C146.996 36.8277 148.027 37.1963 149.034 36.6033ZM32.4822 40.2737C29.2907 39.4082 27.2039 36.7956 26.4552 32.7244C25.9764 30.1437 26.0131 26.5215 26.5288 23.8448C26.627 23.3159 26.9584 22.2099 27.2653 21.3925C28.235 18.7799 29.9904 16.8565 32.2858 15.9108C33.5009 15.414 36.4348 15.2857 38.2392 15.6544C38.9387 15.7986 39.5281 15.9429 39.5525 15.9749C39.5894 16.023 39.2333 20.2865 39.1842 20.3506C39.172 20.3667 38.6319 20.2224 37.9937 20.0461C36.2752 19.5813 34.1516 19.6775 33.1819 20.2705C31.7211 21.1521 30.8128 22.7869 30.3832 25.3194C29.6712 29.5028 30.6287 33.6861 32.6416 35.2248C33.9305 36.2026 36.2014 36.3468 38.2392 35.5775C38.816 35.3531 39.2948 35.1768 39.2948 35.1928C39.3071 35.209 39.4053 36.1545 39.5158 37.2927C39.6876 38.9756 39.6999 39.3923 39.5649 39.4884C39.479 39.5685 38.9143 39.777 38.3006 39.9854C37.4168 40.2579 36.7662 40.338 35.1091 40.3699C33.9675 40.402 32.7768 40.3539 32.4822 40.2737ZM42.7809 31.1376V22.0016H46.4634V40.2737H42.7809V31.1376ZM61.439 31.1376V22.0016H65.1215V40.2737H61.439V31.1376ZM68.1902 38.5587C68.1902 36.6515 68.1289 36.8919 69.258 34.744C69.5895 34.1349 70.4979 32.4039 71.2711 30.8972C72.0568 29.4066 72.9283 27.7397 73.2106 27.2107L73.7262 26.249L71.0257 26.201L68.313 26.1689V22.0016H78.133V25.5278L77.2368 27.2428C75.9111 29.7752 74.254 32.9649 73.5053 34.4074C73.1494 35.0966 72.8548 35.6897 72.8548 35.7216C72.8548 35.7536 74.0699 35.7857 75.5553 35.7857H78.2558V40.2736H68.1902V38.5587ZM95.8091 31.1376V22.0016H99.2829L99.197 23.38L99.1233 24.7424L99.786 23.8127C100.228 23.1876 100.743 22.6747 101.296 22.3221C102.118 21.7611 102.143 21.7611 103.726 21.7611C105.285 21.7611 105.334 21.7772 105.997 22.258C106.795 22.8511 107.384 23.7807 107.679 24.9347C107.851 25.656 107.888 26.7299 107.937 33.029L107.986 40.2737H104.279V33.8624C104.279 26.8902 104.266 26.7139 103.604 26.0407C103.198 25.6239 102.278 25.5598 101.664 25.9124C101.186 26.1849 100.4 27.1626 100.142 27.8198C99.4793 29.5028 99.4546 29.7913 99.3932 35.1928L99.3443 40.2737H95.8091V31.1376ZM127.97 27.9641V15.6383L128.804 15.5422C130.425 15.3338 135.629 15.414 136.599 15.6544C138.317 16.0871 139.741 17.3213 140.294 18.86C140.834 20.3506 140.834 22.5305 140.294 24.0051C139.987 24.8706 139.054 26.1368 138.354 26.6658C138.011 26.9222 137.826 27.1306 137.949 27.1306C138.379 27.1306 139.336 27.8519 139.901 28.6052C141.214 30.3683 141.448 33.6541 140.416 36.1064C139.987 37.1322 138.882 38.5106 138.047 39.0556C136.587 40.0333 135.875 40.1614 131.75 40.2415L127.969 40.3056L127.97 27.9641ZM135.605 35.7538C137.139 34.8241 137.593 32.4199 136.55 30.769C135.985 29.8713 135.101 29.5028 133.223 29.4066L131.652 29.3265V32.7084C131.652 35.2569 131.689 36.1064 131.812 36.1707C131.885 36.2188 132.622 36.2346 133.432 36.2188C134.733 36.1865 134.991 36.1224 135.605 35.7538ZM134.979 25.3835C135.691 25.095 136.501 24.0532 136.685 23.2037C136.869 22.3381 136.771 21.3444 136.427 20.6231C135.973 19.6454 134.389 19.1325 132.56 19.3569L131.652 19.4691V25.7201L133.101 25.64C133.886 25.6079 134.733 25.4797 134.979 25.3835ZM158.166 31.1376V22.0016H161.64L161.566 23.4601L161.48 24.9347L161.836 24.2936C162.303 23.4601 162.966 22.7549 163.813 22.2099C164.439 21.7932 164.598 21.7772 166.084 21.7611C167.421 21.7611 167.753 21.8092 168.17 22.0817C168.931 22.5786 169.643 23.5723 169.962 24.6462C170.257 25.6079 170.257 25.64 170.294 32.9488L170.331 40.2737H166.636V33.8304C166.636 27.7877 166.611 27.3229 166.39 26.6818C166.243 26.2651 166.034 25.9445 165.838 25.8483C165.323 25.5919 164.451 25.656 163.948 26.0086C163.297 26.4414 162.524 27.6275 162.192 28.7174C161.922 29.5827 161.91 29.8394 161.873 34.9522L161.836 40.2736H158.166V31.1376ZM173.878 26.8902V13.5066H177.438L177.462 21.4245L177.499 29.3585L178.015 28.3648C178.469 27.5153 179.451 25.672 181.022 22.7709L181.427 22.0176L183.674 22.0016H185.932L185.515 22.7068C185.294 23.1075 184.631 24.2295 184.042 25.2393C181.685 29.2463 181.12 30.2401 181.12 30.3521C181.12 30.4162 181.366 30.9131 181.66 31.4741C181.967 32.0351 182.569 33.1891 183.011 34.0226C183.453 34.856 184.128 36.1223 184.508 36.8275C184.889 37.5328 185.38 38.4784 185.613 38.9432C185.834 39.392 186.079 39.8086 186.153 39.8729C186.558 40.1934 186.104 40.2736 183.98 40.2415L181.697 40.1934L179.598 35.8498L177.499 31.4901L177.462 35.8817L177.438 40.2737H173.878V26.8902ZM190.069 27.3229C189.652 27.0504 189.271 26.6177 189.038 26.1849C188.719 25.5919 188.67 25.3354 188.633 24.2615C188.571 22.7549 188.817 22.0016 189.627 21.136C190.548 20.1583 191.812 20.0141 192.843 20.7994C193.838 21.5528 194.255 22.5145 194.255 24.0852C194.255 26.9383 192.021 28.6533 190.069 27.3229ZM192.119 27.0504C192.463 26.9222 192.868 26.6337 193.027 26.4093L193.31 26.0086H192.868C192.487 26.0086 192.352 25.8964 191.91 25.2072C191.628 24.7744 191.296 24.4058 191.161 24.4058C190.977 24.4058 190.94 24.534 190.94 25.2072C190.94 25.9605 190.916 26.0086 190.633 26.0086H190.327V22.0016H191.247C192.07 22.0016 192.217 22.0496 192.475 22.4023C192.867 22.8991 192.867 23.3479 192.462 23.8608L192.155 24.2776L192.683 25.0469C192.978 25.4637 193.248 25.8163 193.285 25.8323C193.518 25.8804 193.8 24.9027 193.8 24.0371C193.8 23.2678 193.739 22.9953 193.444 22.4343C192.757 21.1681 191.849 20.6712 190.842 21.0238C189.516 21.4887 188.706 23.2518 189.087 24.8706C189.295 25.8002 190.007 26.7619 190.67 27.0344C191.407 27.339 191.395 27.339 192.119 27.0504ZM191.898 23.5723C192.278 23.0754 191.996 22.6427 191.296 22.6427C190.965 22.6427 190.941 22.6908 190.941 23.2037C190.941 23.7326 190.965 23.7647 191.346 23.7647C191.567 23.7647 191.812 23.6845 191.898 23.5723ZM2.08923 27.0825C1.37728 26.1529 1.365 24.6622 2.04013 23.7647L2.42078 23.2838H5.80856L3.79546 20.6552C2.69071 19.2126 1.73326 17.8342 1.65961 17.5938C1.365 16.568 1.64733 15.3018 2.29791 14.7889C2.75196 14.4362 3.61121 14.3561 4.02869 14.6606C4.17599 14.7568 5.18254 15.991 6.26274 17.3854L8.22674 19.9339L8.28812 17.8022C8.36177 15.3819 8.48452 14.9331 9.2333 14.6125C10.2153 14.1958 11.1849 14.7087 11.5532 15.8627C11.7618 16.5039 11.7864 21.104 11.59 21.7932C11.4059 22.4343 11.0132 22.9312 10.4116 23.2838C9.67507 23.7005 8.75445 24.8866 8.37392 25.9124C8.1898 26.3773 7.87052 26.9703 7.66185 27.1947L7.28132 27.6114H2.49431L2.08923 27.0825ZM16.4265 27.2909C16.181 27.0985 15.8864 26.6177 15.6654 26.0407C15.2112 24.8546 14.4503 23.8608 13.5418 23.2678C12.4003 22.5145 12.3389 22.3061 12.3389 18.876C12.3389 16.2634 12.3634 15.9429 12.5844 15.462C13.0386 14.5003 14.2291 14.1637 15.0148 14.7889C15.6286 15.2857 15.7759 15.9269 15.7759 18.1067V19.998L17.8626 17.2732L19.9494 14.5484H20.7349C21.4469 14.5484 21.5697 14.5965 21.9134 15.0293C22.1098 15.2857 22.343 15.7666 22.4167 16.1192C22.6499 17.2412 22.4412 17.6739 20.2196 20.6071L18.1818 23.2838H21.582L21.987 23.8608C22.7235 24.8706 22.5518 26.6658 21.6679 27.355C21.3856 27.5634 20.9314 27.6114 19.0656 27.6114C17.0525 27.6114 16.7824 27.5794 16.4265 27.2909ZM43.3824 20.1102C42.0567 18.9882 42.1304 16.4237 43.5176 15.462C43.9716 15.1415 44.1927 15.0934 44.7819 15.1575C45.997 15.3018 46.7091 16.2795 46.7091 17.8342C46.7091 19.437 45.9602 20.4308 44.696 20.527C44.0329 20.575 43.8857 20.527 43.3824 20.1102ZM62.3596 20.3346C61.4881 19.8377 60.9234 18.3311 61.1812 17.1931C61.5863 15.3979 63.0225 14.6125 64.3359 15.446C65.7843 16.3436 65.8089 19.2126 64.385 20.1904C63.7835 20.6071 62.9364 20.6712 62.3596 20.3346Z" fill="#70707B"/>
</g>
</g>
<defs>
<clipPath id="clip0_1_5561">
<rect width="194.133" height="56" fill="white" transform="translate(0.519531)"/>
</clipPath>
<clipPath id="clip1_1_5561">
<rect width="192.889" height="28.209" fill="white" transform="translate(1.45312 13.5066)"/>
</clipPath>
</defs>
</svg>
