<svg width="195" height="56" viewBox="0 0 195 56" fill="none" xmlns="http://www.w3.org/2000/svg">
<g clip-path="url(#clip0_1_5556)">
<rect x="0.34668" width="196.622" height="56" fill="white"/>
<g clip-path="url(#clip1_1_5556)">
<path fill-rule="evenodd" clip-rule="evenodd" d="M45.0205 18.8337C45.0019 18.8337 45.0205 27.4564 45.0205 27.4564C45.0205 28.5407 44.0877 29.4873 42.8678 29.4873H41.7004V29.9299H51.5921V29.4873H50.423C49.2209 29.4873 48.272 28.5238 48.272 27.4564V18.699V8.24865C48.272 7.19893 49.2016 6.21694 50.423 6.21694H51.5921V5.77835H41.7004V6.21694H42.8678C44.1046 6.21694 45.0205 7.19893 45.0205 8.24865V17.6139H33.2986V8.24865C33.2986 7.19893 34.246 6.21694 35.4489 6.21694H36.6163V5.77835H26.7246V6.21694H27.8961C29.1167 6.21694 30.0479 7.19893 30.0479 8.24865V27.4572C30.0479 28.5238 29.1167 29.4881 27.8961 29.4881H26.7246V29.9307H36.6163V29.4881H35.4489C34.246 29.4881 33.2986 28.5246 33.2986 27.4572C33.2986 27.4572 33.3156 18.8345 33.2986 18.8345L45.0205 18.8337ZM68.5431 23.6098C68.6302 25.0288 67.7506 27.1806 66.5267 28.2852C65.3529 29.3429 63.6823 30.2661 61.4467 30.2661C58.9078 30.2661 56.7221 28.91 55.924 28.6036C55.4426 28.419 54.8114 28.4432 54.434 28.6746C53.9946 28.9455 53.7238 29.3849 53.6206 30.1992H53.2489V21.8288H53.6206C53.96 24.4048 55.1613 25.9156 55.9078 26.7783C57.1277 28.182 59.4311 28.9785 61.6506 28.6246C63.4131 28.3384 65.3432 26.426 65.1295 24.0565C65.0554 23.2019 64.8651 21.9611 63.0898 20.7969C61.9739 20.068 60.3905 19.0344 58.8885 18.0379C56.9922 16.7794 55.2725 15.4193 54.7872 14.8678C54.1567 14.1479 53.3674 13.107 53.3674 11.447C53.3674 10.0256 53.9076 8.39861 55.0613 7.31503C56.2126 6.23146 57.7718 5.41797 60.0067 5.41797C62.2424 5.41797 63.9363 6.60474 64.5128 6.87483C65.0892 7.14492 65.7253 7.08123 66.0865 6.87483C66.4437 6.67005 66.6807 6.36287 66.7831 5.55503H67.1524V13.4787H66.7831C66.4437 10.9052 65.3255 8.97426 64.5458 8.26155C63.7662 7.55126 62.2424 6.56927 59.9737 7.01108C57.7952 7.42952 56.7358 8.41554 56.5343 10.1586C56.3827 11.4857 57.1027 12.3056 57.5179 12.8015C58.3652 13.8197 63.7396 16.8633 66.172 18.9667C67.4273 20.0519 68.4101 21.3403 68.5431 23.6098ZM84.2107 17.5961C88.5143 19.0739 89.7414 22.1143 88.9424 25.2424C88.0048 28.9261 83.8535 29.6759 82.5063 29.8549C81.8992 29.9307 80.3488 29.9226 78.8153 29.9242C76.0774 29.9291 72.617 29.9194 69.8363 29.9194V29.4768H71.2593C72.1647 29.4768 73.1999 28.7149 73.1999 27.562V8.2809C73.1999 7.12799 72.1647 6.34836 71.269 6.34836H69.846V5.90574H78.4324C80.4988 5.90574 81.621 6.10649 82.345 6.24919C83.5649 6.48381 87.1228 7.53513 87.9677 10.8552C88.6232 13.4263 87.3429 16.6673 84.2107 17.5961ZM76.4168 16.9205C77.6028 17.2236 81.0938 17.3043 82.4482 16.4456C84.5702 15.096 85.3055 12.9361 84.9153 11.0221C84.6799 9.87482 84.0712 8.81382 83.0239 8.07934C80.9567 6.62328 77.9777 6.8571 76.4176 7.33197L76.4168 16.9205ZM76.4168 28.5625C78.0905 29.0825 81.2752 29.4776 83.4955 27.8893C86.1593 25.9826 86.7205 21.3249 82.9602 18.8974C81.4469 17.9186 77.6705 17.9879 76.4168 18.2806V28.5625ZM111.582 6.19759L111.932 14.3801L111.441 14.397C111.203 12.3298 110.427 10.8713 109.443 9.92642C109.157 9.65069 108.622 9.09842 107.847 8.61226C106.559 7.79877 104.639 7.07881 102.361 7.48595C98.9405 8.09547 97.1773 10.3578 96.3001 12.5338C95.2117 15.2105 94.5264 19.7826 96.363 23.6461C97.8578 26.7791 100.726 28.0828 102.935 28.4182C104.822 28.7092 108.999 28.6214 112.187 24.3209L112.696 24.6595C110.222 28.1505 106.934 30.3862 103.172 30.3532C98.3649 30.3072 95.3439 27.6611 93.9612 26.0849C92.5028 24.4257 91.3869 21.275 91.3724 18.5281C91.3619 16.0893 91.8989 13.3731 92.7745 11.7856C94.2829 9.06214 97.4337 6.34917 101.584 5.94605C104.69 5.63888 106.73 6.25 108.477 7.24731C109.352 7.74798 109.84 7.80522 110.316 7.60528C110.788 7.4013 111.169 6.99657 111.169 6.19759H111.582Z" fill="#70707B"/>
<path fill-rule="evenodd" clip-rule="evenodd" d="M119.895 17.8647L131.963 29.93V5.79456L119.895 17.8647ZM131.963 29.93H156.097L144.032 17.8647L131.963 29.93ZM144.032 17.8647L156.097 5.79456H131.963L144.032 17.8647ZM156.1 5.79456V29.93L168.165 17.8647L156.1 5.79456ZM44.9181 46.2844C44.9181 45.1541 45.5639 44.2341 46.6499 44.2341C47.914 44.2341 48.4389 45.1299 48.4099 46.2844H44.9181ZM127.623 47.0415C127.653 48.3185 127.367 49.652 125.824 49.652C125.054 49.652 124.463 49.2255 124.463 48.3717C124.463 47.3672 125.52 47.0802 126.318 47.0415H127.623ZM109.223 46.9407C109.223 45.4733 109.729 44.2341 111.283 44.2341C112.838 44.2341 113.345 45.4733 113.345 46.9407C113.345 48.4161 112.838 49.652 111.283 49.652C109.729 49.652 109.223 48.4161 109.223 46.9407ZM85.0943 46.9302C85.0943 45.6362 85.4781 44.1946 87.047 44.1946C88.5304 44.1946 88.9997 45.6765 88.9997 46.9302C88.9997 48.2234 88.6272 49.6907 87.047 49.6907C85.5764 49.6907 85.0943 48.2226 85.0943 46.9302ZM68.348 46.9407C68.348 45.4733 68.8584 44.2341 70.4095 44.2341C71.9656 44.2341 72.4751 45.4733 72.4751 46.9407C72.4751 48.4161 71.9664 49.652 70.4095 49.652C68.8584 49.6528 68.348 48.4161 68.348 46.9407ZM30.0535 41.6486H26.7246V40.4658H34.7571V41.6486H31.429V50.3962H30.0535V41.6486ZM162.66 50.3962V40.4666H163.966V46.3086L166.55 43.4916H168.242L165.327 46.4223L168.418 50.397H166.73L163.995 46.6698H163.966V50.397H162.66V50.3962ZM155.798 44.5115H155.826C156.269 43.6424 157.227 43.2876 157.914 43.2876C158.396 43.2876 160.529 43.407 160.529 45.6225V50.3954H159.223V46.049C159.223 44.9074 158.739 44.2898 157.64 44.2898C157.64 44.2898 156.926 44.2454 156.377 44.7969C156.184 44.9904 155.826 45.2895 155.826 46.6391V50.3946H154.519V43.49H155.798V44.5115ZM151.127 47.0415C151.152 48.3185 150.866 49.652 149.324 49.652C148.555 49.652 147.964 49.2255 147.964 48.3717C147.964 47.3672 149.021 47.0802 149.817 47.0415H151.127ZM149.943 46.1304C148.307 46.1304 146.587 46.6956 146.587 48.637C146.587 49.9834 147.797 50.6026 148.993 50.6026C149.943 50.6026 150.711 50.2309 151.139 49.3634H151.164C151.18 49.6803 151.207 49.9842 151.237 50.297C151.248 50.4639 151.484 50.3962 151.605 50.3962H152.484C152.452 49.9112 152.434 49.4254 152.431 48.9393V45.6354C152.431 43.7109 151.03 43.2876 149.612 43.2876C148.251 43.2876 147.068 43.8214 146.998 45.3314H148.376C148.389 44.6179 149.008 44.2341 149.668 44.2341C151.057 44.2341 151.128 44.9348 151.128 46.1304H149.943ZM143.765 46.9407C143.765 48.2347 143.283 49.652 141.813 49.652C140.232 49.652 139.86 48.2347 139.86 46.9407C139.86 45.6934 140.326 44.2341 141.813 44.2341C143.381 44.2341 143.765 45.6515 143.765 46.9407ZM139.887 49.3626L139.86 49.2949H139.887C140.353 50.2583 141.265 50.6018 142.268 50.6018C144.316 50.6018 145.139 48.7168 145.139 46.9407C145.139 45.0718 144.177 43.2876 142.032 43.2876C141.152 43.2876 140.286 43.6029 139.886 44.4293H139.859V40.4658H138.556V49.2949C138.556 49.5674 138.513 49.9834 138.483 50.3954H139.833L139.887 49.3626ZM131.127 50.3962V40.4666H132.431V50.3962H131.127ZM126.443 46.1304C124.807 46.1304 123.087 46.6956 123.087 48.637C123.087 49.9834 124.3 50.6026 125.495 50.6026C126.443 50.6026 127.213 50.2309 127.639 49.3634H127.664C127.681 49.6803 127.705 49.9842 127.734 50.297C127.746 50.4639 127.984 50.3962 128.105 50.3962H128.986C128.952 49.9113 128.934 49.4254 128.932 48.9393V45.6354C128.932 43.7109 127.53 43.2876 126.112 43.2876C124.751 43.2876 123.569 43.8214 123.5 45.3314H124.878C124.889 44.6179 125.508 44.2341 126.168 44.2341C127.557 44.2341 127.625 44.9348 127.625 46.1304H126.443ZM120.588 45.7047C120.519 44.8388 120.106 44.2341 119.174 44.2341C117.92 44.2341 117.439 45.3193 117.439 46.9407C117.439 48.566 117.921 49.652 119.174 49.652C120.041 49.652 120.575 49.0869 120.644 48.0976H121.95C121.838 49.652 120.685 50.601 119.158 50.601C116.942 50.601 116.063 49.0296 116.063 46.9979C116.063 44.9743 117.081 43.286 119.268 43.286C120.725 43.286 121.825 44.2059 121.895 45.7031H120.588V45.7047ZM111.283 43.2876C109.016 43.2876 107.845 44.7977 107.845 46.9407C107.845 49.0869 109.015 50.6018 111.283 50.6018C113.554 50.6018 114.726 49.0869 114.726 46.9407C114.725 44.7977 113.554 43.2876 111.283 43.2876ZM104.655 50.3962V40.4666H105.96V50.3962H104.655ZM96.2808 43.2876C97.5869 43.2876 99.0574 43.8343 98.9615 45.404H97.5869C97.6417 44.5236 96.9685 44.2341 96.2114 44.2341C95.5084 44.2341 94.9456 44.5631 94.9456 45.3314C94.9456 46.1046 96.1268 46.1578 96.6226 46.3078C97.7933 46.6948 99.1397 46.8318 99.1397 48.3879C99.1397 50.0793 97.4917 50.6018 96.0752 50.6018C94.628 50.6018 93.4219 49.9391 93.4332 48.3467H94.8086C94.8368 49.1989 95.4141 49.652 96.2122 49.652C96.9806 49.652 97.7667 49.3465 97.7667 48.4524C97.7667 46.9141 93.571 48.0678 93.571 45.3758C93.5702 43.9318 95.0279 43.2876 96.2808 43.2876ZM92.6181 40.4658H94.2136L92.6745 43.8343H91.7393L92.6181 40.4658ZM88.9868 44.4293H88.9586C88.5587 43.6029 87.6952 43.2876 86.8132 43.2876C84.6678 43.2876 83.7188 45.0718 83.7188 46.9407C83.7188 48.7168 84.5291 50.6018 86.5802 50.6018C87.5831 50.6018 88.4918 50.2583 88.9586 49.2949H88.9868V49.3626L89.0263 50.3954H90.3606C90.334 49.9955 90.2921 49.5827 90.2921 49.1715V40.465H88.9868V44.4293ZM80.5278 50.3962V40.4666H81.8347V50.3962H80.5278ZM76.8046 50.3962H75.5001V43.4916H76.8046V44.8267H76.8336C77.0255 43.877 77.9051 43.3973 78.8557 43.3973C79.0193 43.3973 79.1572 43.4086 79.3079 43.4086V44.6445C79.1282 44.58 78.9234 44.58 78.7452 44.58C77.0965 44.6316 76.8054 45.5136 76.8054 46.9721L76.8046 50.3962ZM70.4095 43.2876C68.1432 43.2876 66.9726 44.7977 66.9726 46.9407C66.9726 49.0869 68.1432 50.6018 70.4095 50.6018C72.6815 50.6018 73.8506 49.0869 73.8506 46.9407C73.8506 44.7977 72.6815 43.2876 70.4095 43.2876ZM66.1631 43.4908L63.7283 50.3954H62.2424L60.6356 44.7122H60.6074L58.8199 50.3954H57.2929L55.0113 43.4908H56.4287L58.0911 49.0498H58.1209L59.8374 43.4908H61.5273L63.0817 48.9393H63.1115L64.8304 43.4908H66.1631ZM49.7853 47.1898V46.544C49.7853 44.6308 48.8081 43.3239 46.7482 43.2876C44.5601 43.2876 43.5418 44.9759 43.5418 46.9995C43.5418 49.0312 44.4214 50.6026 46.6345 50.6026C48.2865 50.6026 49.4983 49.8181 49.7014 48.2484H48.326C48.1744 49.2546 47.6673 49.6528 46.649 49.6528C45.3172 49.6528 44.8205 48.4024 44.9173 47.1898H49.7853ZM35.8713 50.3962V40.4666H37.1782V44.4139H37.2081C37.7031 43.6424 38.4432 43.2884 39.4478 43.2884C41.2473 43.2884 41.8117 44.4817 41.8117 45.72V50.397H40.5072V46.3094C40.5072 45.1017 40.1911 44.3156 38.9665 44.2922C38.444 44.2761 37.6458 44.6768 37.3991 45.2508C37.0968 45.9692 37.179 46.4634 37.179 46.8471V50.3962H35.8713Z" fill="#70707B"/>
</g>
</g>
<defs>
<clipPath id="clip0_1_5556">
<rect width="194.133" height="56" fill="white" transform="translate(0.34668)"/>
</clipPath>
<clipPath id="clip1_1_5556">
<rect width="155.406" height="45.13" fill="white" transform="translate(19.8682 5.44446)"/>
</clipPath>
</defs>
</svg>
